<?xml version="1.0"?>
<svg xmlns="http://www.w3.org/2000/svg" version="1.1" viewBox="0 0 606 481" width="606" height="481">
  <title>Raccoon left ear</title>
  <g transform="translate(24.0 24.0)">
    <path d="M 108.2 0.0 C 136.1 0.2, 205.1 -1.0, 234.1 1.0 C 263.0 3.0, 272.3 10.0, 281.7 11.8 C 291.1 13.5, 287.1 10.5, 290.3 11.3 C 293.5 12.0, 296.4 15.4, 301.1 16.3 C 305.7 17.3, 314.3 15.9, 318.4 17.0 C 322.4 18.1, 315.6 19.3, 325.3 22.7 C 335.1 26.1, 364.6 33.2, 376.9 37.5 C 389.2 41.8, 392.3 45.8, 399.1 48.5 C 405.8 51.1, 407.6 48.9, 417.4 53.3 C 427.3 57.6, 449.6 70.8, 458.4 74.6 C 467.1 78.4, 465.2 73.7, 470.0 76.1 C 474.8 78.6, 480.9 86.1, 487.3 89.5 C 493.6 92.8, 496.0 90.1, 507.8 96.5 C 519.6 102.8, 549.6 122.0, 557.9 127.8 C 566.2 133.6, 558.8 130.0, 557.8 131.2 C 556.9 132.4, 554.9 133.7, 552.0 135.0 C 549.1 136.4, 555.7 130.4, 540.4 139.3 C 525.2 148.1, 486.8 170.9, 460.4 188.1 C 434.1 205.3, 397.0 234.0, 382.4 242.5 C 367.8 251.0, 375.0 240.6, 373.0 239.1 C 371.1 237.6, 377.8 240.8, 370.8 233.5 C 363.8 226.1, 341.8 204.3, 331.0 195.0 C 320.2 185.8, 319.8 185.7, 306.1 178.1 C 292.5 170.6, 259.2 154.3, 248.9 149.7 C 238.6 145.1, 253.0 153.3, 244.4 150.5 C 235.8 147.8, 206.9 136.2, 197.3 133.2 C 187.6 130.2, 188.6 133.1, 186.6 132.5 C 184.7 131.9, 195.2 130.0, 185.6 129.7 C 176.0 129.3, 140.2 129.0, 128.9 130.3 C 117.7 131.7, 121.1 135.3, 118.2 137.6 C 115.3 139.9, 112.9 140.8, 111.4 144.1 C 109.9 147.5, 109.1 152.1, 109.1 157.9 C 109.1 163.7, 110.0 172.6, 111.3 178.9 C 112.5 185.2, 114.3 190.8, 116.6 195.6 C 118.9 200.5, 113.0 195.0, 125.1 208.1 C 137.3 221.3, 169.2 255.1, 189.6 274.6 C 209.9 294.0, 235.1 313.2, 247.1 324.6 C 259.1 336.1, 262.3 336.1, 261.6 343.4 C 260.9 350.6, 252.7 356.7, 243.0 368.0 C 233.2 379.3, 214.2 400.5, 202.9 411.3 C 191.5 422.1, 182.1 429.3, 174.6 432.9 C 167.2 436.5, 167.0 439.3, 158.3 432.8 C 149.5 426.4, 137.3 413.5, 121.8 394.1 C 106.4 374.8, 81.1 339.0, 65.4 316.8 C 49.7 294.6, 37.2 276.0, 27.9 261.0 C 18.5 246.0, 13.9 242.2, 9.3 226.8 C 4.6 211.3, 1.5 191.7, 0.0 168.1 C -1.5 144.4, -0.7 106.5, 0.0 84.9 C 0.7 63.4, -0.5 49.7, 4.5 38.6 C 9.5 27.4, 19.6 24.6, 30.0 18.2 C 40.3 11.7, 53.3 3.0, 66.3 0.0 C 79.4 -3.0, 80.2 -0.2, 108.2 0.0 Z" fill="#5a4a42" stroke="none"></path>
  </g>
</svg>