<?xml version="1.0"?>
<svg xmlns="http://www.w3.org/2000/svg" version="1.1" viewBox="0 0 606 481" width="606" height="481">
  <title>Raccoon right ear</title>
  <g transform="translate(-1666.3 24.0)">
    <path d="M 2057.7 0.0 C 2078.4 -0.0, 2117.6 -1.0, 2140.3 0.0 C 2163.1 1.0, 2181.0 3.1, 2194.2 6.3 C 2207.3 9.4, 2212.3 14.9, 2219.3 18.8 C 2226.3 22.7, 2231.9 26.4, 2236.1 29.9 C 2240.3 33.3, 2242.7 29.9, 2244.7 39.5 C 2246.7 49.1, 2247.9 65.1, 2248.2 87.5 C 2248.6 109.9, 2248.8 149.2, 2246.7 173.8 C 2244.6 198.3, 2247.0 209.7, 2235.4 234.9 C 2223.8 260.0, 2195.8 297.8, 2177.2 324.8 C 2158.5 351.9, 2138.3 378.9, 2123.6 396.9 C 2108.8 414.9, 2097.2 426.9, 2088.7 432.9 C 2080.1 438.9, 2077.7 434.3, 2072.3 432.9 C 2066.9 431.6, 2062.9 430.6, 2056.2 424.8 C 2049.5 419.0, 2036.7 404.1, 2032.1 398.4 C 2027.6 392.6, 2030.3 392.4, 2029.1 390.3 C 2027.8 388.3, 2026.5 387.0, 2024.4 386.3 C 2022.4 385.6, 2017.8 386.7, 2016.8 386.1 C 2015.7 385.5, 2021.9 387.8, 2018.1 382.6 C 2014.4 377.4, 1997.6 363.2, 1994.2 355.0 C 1990.8 346.8, 1993.2 341.4, 1997.7 333.6 C 2002.1 325.8, 2010.5 317.9, 2021.0 308.1 C 2031.4 298.3, 2047.1 286.9, 2060.2 274.8 C 2073.4 262.6, 2089.1 246.5, 2100.0 235.0 C 2110.8 223.5, 2119.2 213.6, 2125.1 205.5 C 2131.1 197.4, 2133.0 192.1, 2135.7 186.3 C 2138.4 180.4, 2140.2 175.1, 2141.2 170.4 C 2142.2 165.7, 2142.1 161.9, 2141.6 158.1 C 2141.0 154.2, 2140.8 151.6, 2137.9 147.3 C 2135.0 142.9, 2129.8 135.2, 2124.3 132.1 C 2118.8 129.0, 2116.1 128.4, 2104.9 128.4 C 2093.8 128.5, 2067.9 130.5, 2057.3 132.2 C 2046.6 133.9, 2046.9 137.2, 2041.0 138.7 C 2035.1 140.2, 2032.6 137.3, 2021.8 141.3 C 2011.0 145.3, 1984.6 159.2, 1976.1 162.7 C 1967.6 166.2, 1979.0 158.2, 1970.8 162.3 C 1962.6 166.4, 1937.4 180.3, 1926.7 187.3 C 1915.9 194.3, 1915.7 195.0, 1906.2 204.2 C 1896.6 213.4, 1877.7 237.1, 1869.4 242.5 C 1861.0 247.9, 1871.1 246.7, 1856.2 236.7 C 1841.3 226.7, 1807.7 200.6, 1780.1 182.5 C 1752.4 164.5, 1703.3 138.8, 1690.3 128.2 C 1677.3 117.6, 1696.6 122.2, 1702.2 119.0 C 1707.9 115.7, 1716.8 113.0, 1724.3 108.7 C 1731.8 104.5, 1740.0 97.2, 1747.2 93.5 C 1754.4 89.7, 1760.4 90.0, 1767.5 86.3 C 1774.6 82.6, 1785.8 73.4, 1789.9 71.3 C 1794.0 69.2, 1789.4 74.8, 1792.1 73.6 C 1794.7 72.5, 1796.7 68.5, 1805.9 64.5 C 1815.0 60.5, 1837.4 53.5, 1846.9 49.5 C 1856.5 45.5, 1850.0 45.5, 1863.1 40.5 C 1876.2 35.5, 1914.1 22.8, 1925.6 19.4 C 1937.0 16.1, 1924.6 22.2, 1931.9 20.3 C 1939.3 18.5, 1955.8 11.6, 1969.8 8.3 C 1983.9 4.9, 2001.7 1.4, 2016.3 0.0 C 2031.0 -1.4, 2037.0 0.0, 2057.7 0.0 Z" fill="#5a4a42" stroke="none"></path>
  </g>
</svg>