<svg xmlns="http://www.w3.org/2000/svg" viewBox="0 0 630 672" width="630" height="672">
<title>racoon-ipsec-tools logo</title>
<path d="M 401.0 1.0 L 415.0 25.0 L 442.0 27.0 L 424.0 47.0 L 430.0 74.0 L 409.0 64.0 L 404.0 63.0 L 381.0 77.0 L 384.0 49.0 L 363.0 32.0 L 389.0 27.0 L 393.0 21.0 L 400.0 2.0 Z" fill="#5a4a42"></path>
<path d="M 607.0 348.0 L 617.0 349.0 L 621.0 353.0 L 621.0 361.0 L 613.0 380.0 L 600.0 400.0 L 580.0 426.0 L 554.0 456.0 L 493.0 518.0 L 452.0 551.0 L 401.0 584.0 L 348.0 611.0 L 303.0 628.0 L 252.0 641.0 L 207.0 646.0 L 145.0 647.0 L 91.0 644.0 L 53.0 645.0 L 28.0 651.0 L 20.0 655.0 L 9.0 665.0 L 20.0 628.0 L 34.0 594.0 L 53.0 558.0 L 83.0 517.0 L 101.0 499.0 L 116.0 487.0 L 135.0 475.0 L 164.0 463.0 L 235.0 447.0 L 378.0 427.0 L 405.0 419.0 L 420.0 410.0 L 420.0 429.0 L 413.0 446.0 L 402.0 459.0 L 391.0 467.0 L 377.0 474.0 L 356.0 481.0 L 253.0 502.0 L 237.0 507.0 L 228.0 513.0 L 228.0 518.0 L 234.0 523.0 L 252.0 530.0 L 267.0 533.0 L 309.0 533.0 L 348.0 525.0 L 383.0 512.0 L 410.0 498.0 L 440.0 479.0 L 494.0 436.0 L 573.0 369.0 L 592.0 355.0 L 601.0 350.0 L 606.0 349.0 Z" fill="#5a4a42"></path>
<path d="M 252.0 96.0 L 290.0 143.0 L 349.0 137.0 L 317.0 186.0 L 317.0 189.0 L 341.0 242.0 L 294.0 229.0 L 282.0 227.0 L 238.0 266.0 L 235.0 207.0 L 183.0 176.0 L 239.0 154.0 L 251.0 97.0 Z" fill="#f5a623"></path>
<path d="M 469.0 232.0 L 480.0 269.0 L 482.0 271.0 L 518.0 282.0 L 485.0 304.0 L 485.0 344.0 L 454.0 319.0 L 416.0 332.0 L 430.0 294.0 L 407.0 263.0 L 411.0 262.0 L 446.0 264.0 L 469.0 233.0 Z" fill="#a8b400"></path>

<g fill="#ffffff" stroke="#ffffff" stroke-width="11" stroke-linejoin="round" stroke-linecap="round">
<path d="M 372 486 C 436 484, 480 434, 450 384" fill="none"></path>
<ellipse cx="315" cy="452" rx="74" ry="60"></ellipse>
<ellipse cx="286" cy="508" rx="20" ry="11"></ellipse>
<ellipse cx="344" cy="508" rx="20" ry="11"></ellipse>
<circle cx="308" cy="360" r="56"></circle>
<path d="M 272 320 L 288 286 L 312 308 Z"></path>
<path d="M 366 322 L 348 288 L 322 308 Z"></path>
</g>
<g>
<path d="M 372 486 C 436 484, 480 434, 450 384" fill="none" stroke="#5a4a42" stroke-width="30" stroke-linecap="round"></path>
<path d="M 372 486 C 436 484, 480 434, 450 384" fill="none" stroke="#ffffff" stroke-width="30" stroke-linecap="butt" stroke-dasharray="11 25"></path>
<ellipse cx="315" cy="452" rx="74" ry="60" fill="#5a4a42"></ellipse>
<ellipse cx="286" cy="508" rx="20" ry="11" fill="#5a4a42"></ellipse>
<ellipse cx="344" cy="508" rx="20" ry="11" fill="#5a4a42"></ellipse>
<ellipse cx="316" cy="476" rx="13" ry="16" fill="#5a4a42"></ellipse>
<g>
<path d="M 272 320 L 288 286 L 312 308 Z" fill="#5a4a42"></path>
<path d="M 366 322 L 348 288 L 322 308 Z" fill="#5a4a42"></path>
<path d="M 282 312 L 290 296 L 301 307 Z" fill="#ffffff"></path>
<path d="M 354 314 L 347 297 L 336 307 Z" fill="#ffffff"></path>
<circle cx="308" cy="360" r="56" fill="#5a4a42"></circle>
<ellipse cx="303" cy="390" rx="34" ry="26" fill="#ffffff"></ellipse>
<path d="M 309 310 C 299 330, 299 358, 304 382 C 313 358, 320 330, 309 310 Z" fill="#ffffff"></path>
<path d="M 264 330 C 256 342, 256 360, 265 370 C 274 358, 274 340, 264 330 Z" fill="#ffffff"></path>
<path d="M 352 332 C 360 344, 360 362, 351 372 C 342 360, 342 342, 352 332 Z" fill="#ffffff"></path>
<circle cx="286" cy="349" r="7" fill="#ffffff"></circle>
<circle cx="330" cy="349" r="7" fill="#ffffff"></circle>
<ellipse cx="301" cy="377" rx="7.5" ry="6" fill="#5a4a42"></ellipse>
</g>
</g>
</svg>